<svg width="266" height="41" viewBox="0 0 266 41" fill="none" xmlns="http://www.w3.org/2000/svg">
<path d="M18.1024 33.4399H10.6228L0.5 8.45799H6.51743L14.3907 27.8386L22.2077 8.45799H28.2252L18.1024 33.4399Z" fill="#5B22FF"/>
<path d="M55.4166 26.2142C54.2356 30.8073 48.7806 34 42.4257 34C33.8776 34 29.0412 28.2867 29.0412 21.173C29.0412 14.1153 33.8776 8.40198 42.4257 8.40198C49.8491 8.40198 55.023 12.771 55.5291 18.5964V22.7974H34.7774C35.2273 26.7743 37.5331 29.0148 42.4257 29.0148C45.6313 29.0148 48.7243 28.0066 49.4554 26.2142H55.4166ZM34.9461 18.3723H49.9053C49.6241 15.1236 46.6998 13.3872 42.4257 13.3872C38.0392 13.3872 35.7334 15.1796 34.9461 18.3723Z" fill="#5B22FF"/>
<path d="M59.4342 8.40198H65.058V12.0428C66.9701 9.91433 69.7819 8.40198 74.056 8.40198C83.6726 8.40198 84.7412 15.0115 84.7412 18.8204V33.4399H79.1174V18.8204C79.1174 15.5157 77.374 13.9473 74.056 13.4432C69.9507 12.827 65.3954 15.3476 65.058 19.1565V33.4399H59.4342V8.40198Z" fill="#5B22FF"/>
<path d="M88.9661 8.28995H94.5337V0H100.214V8.28995H105.5V12.771H100.214V33.4399H94.5337V12.771H88.9661V8.28995Z" fill="#5B22FF"/>
<path d="M142.83 34H129.159V11.587H142.83V14.377H132.197V21.383H141.776V24.08H132.197V31.179H142.83V34ZM149.34 34H146.426V18.841H149.061L149.371 21.166C150.332 19.43 152.254 18.407 154.393 18.407C158.392 18.407 160.221 20.856 160.221 24.731V34H157.307V25.382C157.307 22.313 155.881 21.073 153.649 21.073C150.921 21.073 149.34 23.026 149.34 25.971V34ZM168.225 34H165.311V21.29H162.335V18.841H165.311V14.098H168.225V18.841H171.201V21.29H168.225V34ZM179.896 34.372C175.432 34.372 172.363 31.148 172.363 26.436C172.363 21.693 175.37 18.407 179.772 18.407C184.081 18.407 186.902 21.383 186.902 25.878V26.963L175.184 26.994C175.401 30.187 177.075 31.954 179.958 31.954C182.221 31.954 183.709 31.024 184.205 29.288H186.933C186.189 32.543 183.647 34.372 179.896 34.372ZM179.772 20.856C177.23 20.856 175.618 22.375 175.246 25.041H183.988C183.988 22.53 182.345 20.856 179.772 20.856ZM198.527 18.717V21.383H197.225C194.466 21.383 192.761 23.057 192.761 25.971V34H189.847V18.872H192.575L192.761 21.166C193.381 19.585 194.9 18.531 196.977 18.531C197.504 18.531 197.938 18.593 198.527 18.717ZM200.95 40.789V18.841H203.585L203.802 21.569C204.825 19.492 206.871 18.407 209.289 18.407C213.629 18.407 216.326 21.662 216.326 26.312C216.326 30.931 213.784 34.403 209.289 34.403C206.871 34.403 204.856 33.38 203.864 31.52V40.789H200.95ZM203.895 26.436C203.895 29.536 205.693 31.768 208.669 31.768C211.645 31.768 213.412 29.536 213.412 26.436C213.412 23.305 211.645 21.073 208.669 21.073C205.693 21.073 203.895 23.274 203.895 26.436ZM227.908 18.717V21.383H226.606C223.847 21.383 222.142 23.057 222.142 25.971V34H219.228V18.872H221.956L222.142 21.166C222.762 19.585 224.281 18.531 226.358 18.531C226.885 18.531 227.319 18.593 227.908 18.717ZM231.757 15.245C230.703 15.245 229.835 14.377 229.835 13.323C229.835 12.238 230.703 11.401 231.757 11.401C232.811 11.401 233.679 12.238 233.679 13.323C233.679 14.377 232.811 15.245 231.757 15.245ZM230.331 34V18.841H233.245V34H230.331ZM235.926 29.598H238.716C238.716 31.148 239.894 32.078 241.816 32.078C243.862 32.078 245.04 31.241 245.04 29.846C245.04 28.823 244.544 28.203 242.963 27.8L240.297 27.18C237.6 26.529 236.329 25.196 236.329 22.964C236.329 20.174 238.685 18.407 242.033 18.407C245.35 18.407 247.52 20.267 247.582 23.15H244.792C244.73 21.631 243.707 20.67 241.94 20.67C240.111 20.67 239.088 21.476 239.088 22.871C239.088 23.894 239.832 24.576 241.32 24.948L243.986 25.599C246.559 26.219 247.83 27.397 247.83 29.66C247.83 32.543 245.35 34.372 241.754 34.372C238.189 34.372 235.926 32.481 235.926 29.598ZM257.292 34.372C252.828 34.372 249.759 31.148 249.759 26.436C249.759 21.693 252.766 18.407 257.168 18.407C261.477 18.407 264.298 21.383 264.298 25.878V26.963L252.58 26.994C252.797 30.187 254.471 31.954 257.354 31.954C259.617 31.954 261.105 31.024 261.601 29.288H264.329C263.585 32.543 261.043 34.372 257.292 34.372ZM257.168 20.856C254.626 20.856 253.014 22.375 252.642 25.041H261.384C261.384 22.53 259.741 20.856 257.168 20.856Z" fill="#5B22FF"/>
<path d="M18.1024 33.4399H10.6228L0.5 8.45799H6.51743L14.3907 27.8386L22.2077 8.45799H28.2252L18.1024 33.4399Z" fill="#5B22FF"/>
<path d="M55.4166 26.2142C54.2356 30.8073 48.7806 34 42.4257 34C33.8776 34 29.0412 28.2867 29.0412 21.173C29.0412 14.1153 33.8776 8.40198 42.4257 8.40198C49.8491 8.40198 55.023 12.771 55.5291 18.5964V22.7974H34.7774C35.2273 26.7743 37.5331 29.0148 42.4257 29.0148C45.6313 29.0148 48.7243 28.0066 49.4554 26.2142H55.4166ZM34.9461 18.3723H49.9053C49.6241 15.1236 46.6998 13.3872 42.4257 13.3872C38.0392 13.3872 35.7334 15.1796 34.9461 18.3723Z" fill="#5B22FF"/>
<path d="M59.4342 8.40198H65.058V12.0428C66.9701 9.91433 69.7819 8.40198 74.056 8.40198C83.6726 8.40198 84.7412 15.0115 84.7412 18.8204V33.4399H79.1174V18.8204C79.1174 15.5157 77.374 13.9473 74.056 13.4432C69.9507 12.827 65.3954 15.3476 65.058 19.1565V33.4399H59.4342V8.40198Z" fill="#5B22FF"/>
<path d="M88.9661 8.28995H94.5337V0H100.214V8.28995H105.5V12.771H100.214V33.4399H94.5337V12.771H88.9661V8.28995Z" fill="#5B22FF"/>
<path d="M142.83 34H129.159V11.587H142.83V14.377H132.197V21.383H141.776V24.08H132.197V31.179H142.83V34ZM149.34 34H146.426V18.841H149.061L149.371 21.166C150.332 19.43 152.254 18.407 154.393 18.407C158.392 18.407 160.221 20.856 160.221 24.731V34H157.307V25.382C157.307 22.313 155.881 21.073 153.649 21.073C150.921 21.073 149.34 23.026 149.34 25.971V34ZM168.225 34H165.311V21.29H162.335V18.841H165.311V14.098H168.225V18.841H171.201V21.29H168.225V34ZM179.896 34.372C175.432 34.372 172.363 31.148 172.363 26.436C172.363 21.693 175.37 18.407 179.772 18.407C184.081 18.407 186.902 21.383 186.902 25.878V26.963L175.184 26.994C175.401 30.187 177.075 31.954 179.958 31.954C182.221 31.954 183.709 31.024 184.205 29.288H186.933C186.189 32.543 183.647 34.372 179.896 34.372ZM179.772 20.856C177.23 20.856 175.618 22.375 175.246 25.041H183.988C183.988 22.53 182.345 20.856 179.772 20.856ZM198.527 18.717V21.383H197.225C194.466 21.383 192.761 23.057 192.761 25.971V34H189.847V18.872H192.575L192.761 21.166C193.381 19.585 194.9 18.531 196.977 18.531C197.504 18.531 197.938 18.593 198.527 18.717ZM200.95 40.789V18.841H203.585L203.802 21.569C204.825 19.492 206.871 18.407 209.289 18.407C213.629 18.407 216.326 21.662 216.326 26.312C216.326 30.931 213.784 34.403 209.289 34.403C206.871 34.403 204.856 33.38 203.864 31.52V40.789H200.95ZM203.895 26.436C203.895 29.536 205.693 31.768 208.669 31.768C211.645 31.768 213.412 29.536 213.412 26.436C213.412 23.305 211.645 21.073 208.669 21.073C205.693 21.073 203.895 23.274 203.895 26.436ZM227.908 18.717V21.383H226.606C223.847 21.383 222.142 23.057 222.142 25.971V34H219.228V18.872H221.956L222.142 21.166C222.762 19.585 224.281 18.531 226.358 18.531C226.885 18.531 227.319 18.593 227.908 18.717ZM231.757 15.245C230.703 15.245 229.835 14.377 229.835 13.323C229.835 12.238 230.703 11.401 231.757 11.401C232.811 11.401 233.679 12.238 233.679 13.323C233.679 14.377 232.811 15.245 231.757 15.245ZM230.331 34V18.841H233.245V34H230.331ZM235.926 29.598H238.716C238.716 31.148 239.894 32.078 241.816 32.078C243.862 32.078 245.04 31.241 245.04 29.846C245.04 28.823 244.544 28.203 242.963 27.8L240.297 27.18C237.6 26.529 236.329 25.196 236.329 22.964C236.329 20.174 238.685 18.407 242.033 18.407C245.35 18.407 247.52 20.267 247.582 23.15H244.792C244.73 21.631 243.707 20.67 241.94 20.67C240.111 20.67 239.088 21.476 239.088 22.871C239.088 23.894 239.832 24.576 241.32 24.948L243.986 25.599C246.559 26.219 247.83 27.397 247.83 29.66C247.83 32.543 245.35 34.372 241.754 34.372C238.189 34.372 235.926 32.481 235.926 29.598ZM257.292 34.372C252.828 34.372 249.759 31.148 249.759 26.436C249.759 21.693 252.766 18.407 257.168 18.407C261.477 18.407 264.298 21.383 264.298 25.878V26.963L252.58 26.994C252.797 30.187 254.471 31.954 257.354 31.954C259.617 31.954 261.105 31.024 261.601 29.288H264.329C263.585 32.543 261.043 34.372 257.292 34.372ZM257.168 20.856C254.626 20.856 253.014 22.375 252.642 25.041H261.384C261.384 22.53 259.741 20.856 257.168 20.856Z" fill="#5B22FF"/>
</svg>
